<svg width="439" height="798" viewBox="0 0 439 798" fill="none" xmlns="http://www.w3.org/2000/svg">
  <mask id="mask0_646_781" style="mask-type:alpha" maskUnits="userSpaceOnUse" x="0" y="0" width="439" height="798">
    <rect width="438.727" height="798" fill="#15171B"/>
  </mask>
  <g mask="url(#mask0_646_781)">
    <path d="M240.633 9.78796L247.416 165.496H231.763L240.633 9.78796Z" fill="#fcbd0a" stroke="#FDFCFA" stroke-width="2.47155"/>
    <path d="M202.085 168.928L241.794 153.927V288.938L202.085 283.004V168.928Z" fill="#fcbd0a" stroke="#FDFCFA" stroke-width="2.47155"/>
    <path d="M273.562 168.928L241.795 153.927V288.938L273.562 283.004V168.928Z" fill="#fcbd0a" stroke="#FDFCFA" stroke-width="2.47155"/>
    <path d="M186.204 285.409L249.739 273.055V384.241L186.204 379.354V285.409Z" fill="#0d9c5c" stroke="#FDFCFA" stroke-width="2.47155"/>
    <path d="M293.417 291.586L249.737 273.055V384.241L293.417 381.994L293.417 291.586Z" fill="#0d9c5c" stroke="#FDFCFA" stroke-width="2.47155"/>
    <path d="M162.376 368.357L249.736 356.444V463.659L162.376 458.947V368.357Z" fill="#0d9c5c" stroke="#FDFCFA" stroke-width="2.47155"/>
    <path d="M325.186 374.313L249.738 356.444V463.659L325.186 461.492L325.186 374.313Z" fill="#0d9c5c" stroke="#FDFCFA" stroke-width="2.47155"/>
    <path d="M337.099 457.703L261.651 443.805V701.914L337.099 696.699V457.703Z" fill="#ec4434" stroke="#FDFCFA" stroke-width="2.47155"/>
    <path d="M130.612 450.774L261.653 443.805V701.914L130.612 690.57V450.774Z" fill="#ec4434" stroke="#FDFCFA" stroke-width="2.47155"/>
    <path d="M277.532 535.135L293.416 531.164V678.088H277.532V535.135Z" fill="#ec4434" stroke="#FDFCFA" stroke-width="2.47155"/>
    <path d="M114.725 687.783L289.445 674.118V1382.93L114.725 1351.52V687.783Z" fill="#4585f3" stroke="#FDFCFA" stroke-width="2.47155"/>
    <path d="M293.417 531.164L356.952 543.077V686.03L293.417 675.094L293.417 531.164Z" fill="#ec4434" stroke="#FDFCFA" stroke-width="2.47155"/>
    <path d="M380.773 688.128L289.442 674.118V1382.93L380.773 1368.6V688.128Z" fill="#4585f3" stroke="#FDFCFA" stroke-width="2.47155"/>
    <path d="M270.033 378.78L274.895 379.698V388.452L283.435 390.065V381.311L288.297 382.23V404.939L283.435 404.021V394.76L274.895 393.147V402.408L270.033 401.49V378.78Z" fill="white"/>
    <path d="M308.203 408.319C306.748 408.636 305.221 408.644 303.621 408.342C301.938 408.024 300.38 407.423 298.946 406.539C297.513 405.655 296.266 404.584 295.206 403.327C294.167 402.052 293.347 400.639 292.744 399.087C292.162 397.539 291.871 395.93 291.871 394.26C291.871 392.589 292.162 391.09 292.744 389.762C293.347 388.438 294.167 387.346 295.206 386.485C296.266 385.606 297.513 384.996 298.946 384.654C300.38 384.311 301.938 384.299 303.621 384.617C305.304 384.935 306.862 385.536 308.296 386.42C309.73 387.304 310.966 388.383 312.005 389.658C313.064 390.915 313.885 392.318 314.467 393.865C315.07 395.417 315.371 397.028 315.371 398.699C315.371 400.411 315.059 401.949 314.436 403.311C313.812 404.674 312.94 405.788 311.818 406.655L313.594 409.718L310.041 411.457L308.203 408.319ZM303.185 399.727L306.738 397.956L309.106 402.019C309.543 401.51 309.886 400.898 310.135 400.184C310.384 399.469 310.509 398.668 310.509 397.78C310.509 396.702 310.332 395.696 309.979 394.762C309.626 393.807 309.138 392.954 308.514 392.202C307.891 391.45 307.153 390.824 306.301 390.325C305.47 389.83 304.577 389.492 303.621 389.311C302.645 389.127 301.741 389.125 300.91 389.306C300.079 389.488 299.351 389.837 298.728 390.353C298.105 390.87 297.616 391.539 297.263 392.36C296.91 393.161 296.733 394.1 296.733 395.178C296.733 396.257 296.91 397.273 297.263 398.228C297.616 399.162 298.105 400.005 298.728 400.757C299.351 401.509 300.079 402.132 300.91 402.628C301.741 403.123 302.645 403.463 303.621 403.647C304.265 403.769 304.899 403.804 305.522 403.753L303.185 399.727Z" fill="white"/>
    <path d="M135.544 467.601L136.052 467.756L136.5 467.471L152.721 457.129C154.813 455.797 156.29 453.689 156.827 451.269C157.364 448.848 156.918 446.313 155.587 444.222C154.255 442.13 152.147 440.653 149.726 440.116C147.306 439.579 144.771 440.025 142.68 441.356L142.679 441.356L114.624 459.221L112.516 460.563L114.906 461.294L135.544 467.601Z" fill="#EA4335" stroke="#FDFCFA" stroke-width="2.30303"/>
    <path d="M153.472 474.165L153.471 474.165L123.965 458.814L123.945 458.803L123.924 458.793C121.737 457.765 119.237 457.624 116.949 458.398C114.66 459.172 112.76 460.801 111.646 462.945C110.532 465.089 110.29 467.581 110.973 469.899C111.655 472.216 113.207 474.18 115.305 475.379L115.325 475.39L115.345 475.401L144.848 490.751C144.848 490.751 144.848 490.751 144.849 490.751C146.299 491.51 147.923 491.873 149.559 491.803L149.561 491.803C151.617 491.712 153.585 490.946 155.161 489.622C156.738 488.299 157.833 486.493 158.279 484.484C158.724 482.475 158.495 480.375 157.626 478.509C156.757 476.644 155.296 475.117 153.472 474.165Z" fill="#4285F4" stroke="#FDFCFA" stroke-width="2.30303"/>
    <path d="M172.383 488.889L173.04 487.943L172.383 488.889C174.076 490.067 176.111 490.652 178.171 490.554C179.809 490.483 181.398 489.98 182.779 489.095C182.779 489.095 182.78 489.094 182.78 489.094L210.833 471.232L212.911 469.908L210.563 469.163L190.18 462.691L189.668 462.528L189.214 462.817L172.711 473.316C172.711 473.316 172.711 473.316 172.71 473.316C172.71 473.316 172.71 473.316 172.71 473.316C170.969 474.422 169.642 476.074 168.936 478.012C168.23 479.952 168.185 482.07 168.809 484.037C169.432 486.004 170.689 487.71 172.383 488.889Z" fill="#FBBC04" stroke="#FDFCFA" stroke-width="2.30303"/>
    <path d="M206.189 472.708L206.196 472.707C208.253 472.619 210.224 471.854 211.801 470.531C213.379 469.208 214.477 467.402 214.923 465.392C215.37 463.383 215.141 461.282 214.272 459.415C213.403 457.549 211.943 456.021 210.117 455.069L210.117 455.069L180.619 439.7L180.618 439.7C178.419 438.556 175.855 438.332 173.49 439.079C171.126 439.825 169.154 441.48 168.01 443.679C166.866 445.879 166.642 448.443 167.389 450.808C168.135 453.172 169.79 455.143 171.989 456.288C171.989 456.288 171.989 456.288 171.99 456.288L201.489 471.636C201.49 471.636 201.491 471.637 201.492 471.637C202.937 472.399 204.557 472.768 206.189 472.708Z" fill="#0F9D58" stroke="#FDFCFA" stroke-width="2.30303"/>
  </g>
</svg>
